<svg width="14" height="12" viewBox="0 0 14 12" fill="none" xmlns="http://www.w3.org/2000/svg">
<path d="M0.989831 11.2616C0.755931 10.9829 0.769772 10.5787 1.00792 10.3168L1.07842 10.249L12.0904 1.00899C12.3944 0.753833 12.8478 0.793502 13.103 1.09758C13.3368 1.37633 13.323 1.7805 13.0849 2.04246L13.0144 2.11018L2.00243 11.3502C1.69834 11.6054 1.24499 11.5657 0.989831 11.2616Z" fill="url(#paint0_radial_455_11)"/>
<path d="M4.33872 1.58004C3.9432 1.54629 3.64993 1.1983 3.68367 0.802794C3.71435 0.443234 4.00473 0.168164 4.35443 0.146484L4.46092 0.147744L12.6132 0.843294C12.9739 0.874064 13.2493 1.166 13.2697 1.51677L13.268 1.62356L12.538 9.77349C12.5026 10.1689 12.1534 10.4607 11.758 10.4253C11.3986 10.3931 11.1247 10.1015 11.1045 9.75169L11.1062 9.64529L11.7714 2.21415L4.33872 1.58004Z" fill="url(#paint1_radial_455_11)"/>
<defs>
<radialGradient id="paint0_radial_455_11" cx="0" cy="0" r="1" gradientUnits="userSpaceOnUse" gradientTransform="translate(4.55051 5.52362) rotate(31.441) scale(11.32 10.6584)">
<stop stop-color="#5465FF"/>
<stop offset="0.938034" stop-color="#00BCD4" stop-opacity="0.515625"/>
<stop offset="1" stop-color="#7CB518" stop-opacity="0.631373"/>
</radialGradient>
<radialGradient id="paint1_radial_455_11" cx="0" cy="0" r="1" gradientUnits="userSpaceOnUse" gradientTransform="translate(6.55302 4.65566) rotate(37.393) scale(9.36283 9.55726)">
<stop stop-color="#5465FF"/>
<stop offset="0.938034" stop-color="#00BCD4" stop-opacity="0.515625"/>
<stop offset="1" stop-color="#7CB518" stop-opacity="0.631373"/>
</radialGradient>
</defs>
</svg>
