<svg width="800" height="800" viewBox="0 0 800 800" fill="none" xmlns="http://www.w3.org/2000/svg">
<g clip-path="url(#clip0_444_8)">
<path d="M733.333 566.733C733.319 612.318 717.737 656.532 689.168 692.054C660.598 727.576 620.755 752.276 576.233 762.066L554.967 698.266C574.441 695.059 592.962 687.571 609.193 676.343C625.425 665.114 638.964 650.425 648.833 633.333H566.667C548.986 633.333 532.029 626.309 519.526 613.807C507.024 601.304 500 584.348 500 566.666V433.333C500 415.652 507.024 398.695 519.526 386.193C532.029 373.69 548.986 366.666 566.667 366.666H664.6C656.466 302.23 625.097 242.976 576.381 200.022C527.664 157.069 464.948 133.369 400 133.369C335.052 133.369 272.336 157.069 223.619 200.022C174.903 242.976 143.534 302.23 135.4 366.666H233.333C251.015 366.666 267.971 373.69 280.474 386.193C292.976 398.695 300 415.652 300 433.333V566.666C300 584.348 292.976 601.304 280.474 613.807C267.971 626.309 251.015 633.333 233.333 633.333H133.333C115.652 633.333 98.6954 626.309 86.193 613.807C73.6905 601.304 66.6667 584.348 66.6667 566.666V400C66.6667 215.9 215.9 66.6665 400 66.6665C584.1 66.6665 733.333 215.9 733.333 400V566.733Z" fill="url(#paint0_radial_444_8)"/>
</g>
<defs>
<radialGradient id="paint0_radial_444_8" cx="0" cy="0" r="1" gradientUnits="userSpaceOnUse" gradientTransform="translate(266.347 371.643) rotate(36.6331) scale(644.491 652.898)">
<stop stop-color="#5465FF"/>
<stop offset="0.938034" stop-color="#00BCD4" stop-opacity="0.515625"/>
<stop offset="1" stop-color="#7CB518" stop-opacity="0.631373"/>
</radialGradient>
<clipPath id="clip0_444_8">
<rect width="800" height="800" fill="white"/>
</clipPath>
</defs>
</svg>
