<svg width="300" height="343" viewBox="0 0 300 343" fill="none" xmlns="http://www.w3.org/2000/svg">
<g clip-path="url(#clip0_443_6)">
<path fill-rule="evenodd" clip-rule="evenodd" d="M145.338 341.378C147.237 342.369 149.359 342.873 151.483 342.856C153.605 342.84 155.711 342.318 157.626 341.31L218.79 308.613C236.134 299.368 249.717 289.03 260.313 276.993C283.353 250.769 295.935 217.3 295.711 182.788L294.986 68.9483C294.917 55.8362 286.305 44.1362 273.568 39.8832L159.783 1.70682C152.932 -0.613017 145.425 -0.562586 138.694 1.82449L25.341 41.3625C12.6732 45.7836 4.21666 57.5676 4.2857 70.6965L5.01054 184.452C5.2349 219.014 18.2477 252.332 41.6673 278.287C52.3675 290.156 66.0707 300.343 83.6051 309.437L145.338 341.378ZM129.147 207.582C131.701 210.036 135.015 211.246 138.328 211.213C141.642 211.196 144.939 209.952 147.457 207.464L214.3 141.568C219.321 136.608 219.27 128.64 214.196 123.748C209.104 118.857 200.907 118.89 195.885 123.85L138.138 180.769L114.494 158.041C109.404 153.15 101.223 153.2 96.1832 158.159C91.1611 163.119 91.2128 171.087 96.304 175.978L129.147 207.582Z" fill="url(#paint0_radial_443_6)"/>
</g>
<defs>
<radialGradient id="paint0_radial_443_6" cx="0" cy="0" r="1" gradientUnits="userSpaceOnUse" gradientTransform="translate(91.5743 150.364) rotate(39.9842) scale(295.064 307.359)">
<stop stop-color="#5465FF"/>
<stop offset="0.938034" stop-color="#00BCD4" stop-opacity="0.515625"/>
<stop offset="1" stop-color="#7CB518" stop-opacity="0.631373"/>
</radialGradient>
<clipPath id="clip0_443_6">
<rect width="300" height="342.857" fill="white"/>
</clipPath>
</defs>
</svg>
